<svg width="300" height="300" viewBox="0 0 300 300" xmlns="http://www.w3.org/2000/svg">
  <!-- Outer dark circle -->
  <circle cx="150" cy="150" r="145" fill="#2B3E50" stroke="#1a252f" stroke-width="2"/>
  
  <!-- Yellow outer ring -->
  <circle cx="150" cy="150" r="135" fill="#FDB913"/>
  
  <!-- Red middle ring -->
  <circle cx="150" cy="150" r="105" fill="#DC3545"/>
  
  <!-- Inner yellow circle -->
  <circle cx="150" cy="150" r="95" fill="#FDB913"/>
  
  <!-- RL Text -->
  <text x="150" y="165" font-size="80" font-weight="900" fill="#2B3E50" text-anchor="middle" font-family="Arial Black, sans-serif">RL</text>
  
  <!-- Eagle wings -->
  <path d="M 100 185 L 85 190 L 90 185 L 80 180 L 90 178 L 100 180 Z" fill="#2B3E50"/>
  <path d="M 200 185 L 215 190 L 210 185 L 220 180 L 210 178 L 200 180 Z" fill="#2B3E50"/>
  <path d="M 150 195 L 140 200 L 145 195 L 150 190 L 155 195 L 160 200 Z" fill="#2B3E50"/>
  
  <!-- Top arc text -->
  <path id="topArc" d="M 45 150 A 105 105 0 0 1 255 150" fill="none"/>
  <text font-size="20" font-weight="700" fill="#FDB913" font-family="Arial, sans-serif" letter-spacing="2">
    <textPath href="#topArc" startOffset="50%" text-anchor="middle">
      RELAY LOGISTICS
    </textPath>
  </text>
  
  <!-- Bottom arc text -->
  <path id="bottomArc" d="M 255 150 A 105 105 0 0 1 45 150" fill="none"/>
  <text font-size="18" font-weight="700" fill="#FDB913" font-family="Arial, sans-serif" letter-spacing="1">
    <textPath href="#bottomArc" startOffset="50%" text-anchor="middle">
      INSPIRE EXCELLENCE
    </textPath>
  </text>
</svg>
